<svg width="" height="" viewBox="0 0 24 24" fill="none" xmlns="http://www.w3.org/2000/svg">
    <path d="M10 11H10.01" stroke="#FAFAFA" stroke-width="2" stroke-linecap="round" stroke-linejoin="round" />
    <path d="M14 6H14.01" stroke="#FAFAFA" stroke-width="2" stroke-linecap="round" stroke-linejoin="round" />
    <path d="M18 6H18.01" stroke="#FAFAFA" stroke-width="2" stroke-linecap="round" stroke-linejoin="round" />
    <path d="M6.5 13.1H6.51" stroke="#FAFAFA" stroke-width="2" stroke-linecap="round" stroke-linejoin="round" />
    <path d="M22 5C22 14 18 17 16 17C14 17 10 14 10 5C10 3 12 2 16 2C20 2 22 3 22 5Z" stroke="#FAFAFA" stroke-width="2"
        stroke-linecap="round" stroke-linejoin="round" />
    <path d="M17.4001 9.90002C16.6001 10.7 15.4001 10.7 14.6001 9.90002" stroke="#FAFAFA" stroke-width="2"
        stroke-linecap="round" stroke-linejoin="round" />
    <path
        d="M10.0999 7.09998C8.99995 7.19998 7.69995 7.69998 5.99995 8.59998C2.49995 10.6 1.29995 12.5 2.29995 14.2C6.79995 22 11.7999 22.6 13.4999 21.6C14.3999 21.1 15.3999 19.5 15.3999 16.9"
        stroke="#FAFAFA" stroke-width="2" stroke-linecap="round" stroke-linejoin="round" />
    <path d="M9.1001 16.5C9.4001 15.4 10.5001 14.8 11.5001 15.1" stroke="#FAFAFA" stroke-width="2"
        stroke-linecap="round" stroke-linejoin="round" />
</svg>